<svg width="200" height="200" viewBox="0 0 200 200" xmlns="http://www.w3.org/2000/svg">
  <!-- 背景渐变 -->
  <defs>
    <linearGradient id="bgGradient" x1="0%" y1="0%" x2="100%" y2="100%">
      <stop offset="0%" style="stop-color:#2196F3;stop-opacity:1" />
      <stop offset="100%" style="stop-color:#009688;stop-opacity:1" />
    </linearGradient>
    <linearGradient id="iconGradient" x1="0%" y1="0%" x2="100%" y2="100%">
      <stop offset="0%" style="stop-color:#FFFFFF;stop-opacity:1" />
      <stop offset="100%" style="stop-color:#E3F2FD;stop-opacity:1" />
    </linearGradient>
  </defs>
  
  <!-- 背景圆形 -->
  <circle cx="100" cy="100" r="95" fill="url(#bgGradient)" />
  
  <!-- 边框 -->
  <circle cx="100" cy="100" r="90" fill="none" stroke="#FFFFFF" stroke-width="4" opacity="0.3" />
  
  <!-- 中心图标 - 火箭 -->
  <g transform="translate(100, 100) scale(0.8)">
    <!-- 火箭主体 -->
    <path d="M 0, -80 L 10, -40 L 20, -40 L 10, 0 L 20, 40 L 10, 40 L 0, 80 L -10, 40 L -20, 40 L -10, 0 L -20, -40 L -10, -40 Z" fill="url(#iconGradient)" />
    <!-- 火箭窗户 -->
    <circle cx="0" cy="-20" r="8" fill="#2196F3" />
    <!-- 火箭火焰 -->
    <path d="M -15, 80 L 0, 110 L 15, 80 Z" fill="#FF5722" />
    <path d="M -10, 80 L 0, 100 L 10, 80 Z" fill="#FF9800" />
    <!-- 火箭翅膀 -->
    <path d="M -20, -30 L -50, -20 L -30, -10 Z" fill="url(#iconGradient)" />
    <path d="M 20, -30 L 50, -20 L 30, -10 Z" fill="url(#iconGradient)" />
    <path d="M -20, 30 L -50, 20 L -30, 10 Z" fill="url(#iconGradient)" />
    <path d="M 20, 30 L 50, 20 L 30, 10 Z" fill="url(#iconGradient)" />
  </g>
  
  <!-- 文字 "VELOCITY" -->
  <text x="100" y="175" font-family="Arial, sans-serif" font-size="24" font-weight="bold" fill="#FFFFFF" text-anchor="middle">VELOCITY</text>
  <!-- 文字 "UI" -->
  <text x="100" y="195" font-family="Arial, sans-serif" font-size="18" font-weight="bold" fill="#FFFFFF" text-anchor="middle">UI</text>
</svg>