<svg xmlns="http://www.w3.org/2000/svg" width="200" height="200" viewBox="0 0 200 200"><defs><linearGradient id="bgGradient" x1="0%" x2="100%" y1="0%" y2="100%"><stop offset="0%" style="stop-color:#2196f3;stop-opacity:1"/><stop offset="100%" style="stop-color:#009688;stop-opacity:1"/></linearGradient><linearGradient id="iconGradient" x1="0%" x2="100%" y1="0%" y2="100%"><stop offset="0%" style="stop-color:#fff;stop-opacity:1"/><stop offset="100%" style="stop-color:#e3f2fd;stop-opacity:1"/></linearGradient></defs><circle cx="100" cy="100" r="95" fill="url(#bgGradient)"/><circle cx="100" cy="100" r="90" fill="none" stroke="#FFF" stroke-width="4" opacity=".3"/><g transform="translate(100, 100) scale(0.8)"><path fill="url(#iconGradient)" d="M 0, -80 L 10, -40 L 20, -40 L 10, 0 L 20, 40 L 10, 40 L 0, 80 L -10, 40 L -20, 40 L -10, 0 L -20, -40 L -10, -40 Z"/><circle cx="0" cy="-20" r="8" fill="#2196F3"/><path fill="#FF5722" d="M -15, 80 L 0, 110 L 15, 80 Z"/><path fill="#FF9800" d="M -10, 80 L 0, 100 L 10, 80 Z"/><path fill="url(#iconGradient)" d="M -20, -30 L -50, -20 L -30, -10 Z"/><path fill="url(#iconGradient)" d="M 20, -30 L 50, -20 L 30, -10 Z"/><path fill="url(#iconGradient)" d="M -20, 30 L -50, 20 L -30, 10 Z"/><path fill="url(#iconGradient)" d="M 20, 30 L 50, 20 L 30, 10 Z"/></g><text x="100" y="175" fill="#FFF" font-family="Arial, sans-serif" font-size="24" font-weight="bold" text-anchor="middle">VELOCITY</text><text x="100" y="195" fill="#FFF" font-family="Arial, sans-serif" font-size="18" font-weight="bold" text-anchor="middle">UI</text></svg>